Coordinates
version=1
nRows=11
nColumns=40
inDegrees=yes

Units are S.I. units (second, meters, Newtons, ...)
Angles are in degrees.

endheader
time	pelvis_tilt	pelvis_list	pelvis_rotation	pelvis_tx	pelvis_ty	pelvis_tz	hip_flexion_r	hip_adduction_r	hip_rotation_r	knee_angle_r	knee_angle_r_beta	ankle_angle_r	subtalar_angle_r	mtp_angle_r	hip_flexion_l	hip_adduction_l	hip_rotation_l	knee_angle_l	knee_angle_l_beta	ankle_angle_l	subtalar_angle_l	mtp_angle_l	lumbar_extension	lumbar_bending	lumbar_rotation	arm_flex_r	arm_add_r	arm_rot_r	elbow_flex_r	pro_sup_r	wrist_flex_r	wrist_dev_r	arm_flex_l	arm_add_l	arm_rot_l	elbow_flex_l	pro_sup_l	wrist_flex_l	wrist_dev_l
     38.27000000	     -2.53636768	     -5.20028758	      0.07872610	      1.10147608	      0.93314948	      0.40195079	     26.12671702	     -6.38504147	     -5.14331974	     62.52911766	     62.52911766	      1.24208847	     -9.71799064	     -2.88460657	     14.52977907	     -6.74330223	     -9.47615314	     23.78443916	     23.78443916	     13.41297149	    -11.62408422	     -0.12827701	    -10.52032832	      6.12210272	      1.44686199	      5.80170198	    -12.88167002	     -4.11259432	     33.84556570	     46.27331211	      0.00000000	      0.00000000	     14.78746694	    -17.50254898	     -2.87102606	     47.94621379	     46.47752621	      0.00000000	      0.00000000
     38.28307143	     -2.73496496	     -5.35643841	     -0.30424076	      1.09969435	      0.93415653	      0.40182347	     27.08400925	     -6.12746763	     -5.19036095	     61.03242674	     61.03242674	      1.31500475	     -9.36894821	     -2.93864144	     13.97666871	     -6.87917086	     -9.85874594	     22.97375411	     22.97375411	     13.39378187	    -11.42234311	     -0.02852439	    -10.64849689	      6.27981936	      1.64195171	      4.26816545	    -12.84458960	     -3.98296861	     32.95402223	     46.28494918	      0.00000000	      0.00000000	     15.97172674	    -17.92577317	     -3.19106352	     49.00741039	     46.53406857	      0.00000000	      0.00000000
     38.29614286	     -2.94936160	     -5.53184108	     -0.64729566	      1.09791040	      0.93507330	      0.40166616	     27.92209024	     -5.84015812	     -5.30614657	     59.30274599	     59.30274599	      1.34507074	     -8.99994713	     -2.91523436	     13.47522043	     -7.03158524	    -10.21072191	     22.20215920	     22.20215920	     13.36395365	    -11.21296189	      0.02029320	    -10.74802378	      6.49223206	      1.72560606	      2.80345633	    -12.76790615	     -3.88078730	     32.15799984	     46.29609451	      0.00000000	      0.00000000	     17.02090355	    -18.41481838	     -3.52892226	     50.09855477	     46.58979063	      0.00000000	      0.00000000
     38.30921429	     -3.10227170	     -5.66688154	     -1.03288426	      1.09620183	      0.93593068	      0.40166729	     28.59863717	     -5.54105954	     -5.35869464	     57.34827823	     57.34827823	      1.32054458	     -8.56049403	     -2.92821718	     12.88907736	     -7.15013077	    -10.63296186	     21.42583381	     21.42583381	     13.30971217	    -10.99838913	     -0.11305869	    -10.97065949	      6.59080123	      1.97191913	      1.32659445	    -12.72634925	     -3.77736749	     31.21187519	     46.31156436	      0.00000000	      0.00000000	     18.03792154	    -18.81588143	     -3.99045539	     51.74179624	     46.66466943	      0.00000000	      0.00000000
     38.32228571	     -3.28529677	     -5.81324959	     -1.38421207	      1.09456083	      0.93661689	      0.40173433	     29.15018719	     -5.22476402	     -5.47704007	     55.08537337	     55.08537337	      1.32502064	     -8.05094866	     -2.84815292	     12.37377340	     -7.28338200	    -11.01179266	     20.70506901	     20.70506901	     13.23681268	    -10.79897706	     -0.27203940	    -11.12307815	      6.72578407	      2.02251073	      0.01666077	    -12.66239804	     -3.71388306	     30.42359665	     46.32513571	      0.00000000	      0.00000000	     18.87438470	    -19.30923388	     -4.46182210	     53.20829639	     46.73534175	      0.00000000	      0.00000000
     38.33535714	     -3.49148160	     -5.91895205	     -1.72311354	      1.09293728	      0.93707013	      0.40187550	     29.60043901	     -4.94364200	     -5.62077569	     52.50602953	     52.50602953	      1.29637760	     -7.43945928	     -2.77046376	     11.92562876	     -7.37913215	    -11.39019533	     20.04799418	     20.04799418	     13.16078109	    -10.62243622	     -0.55068673	    -11.24147281	      6.81118596	      2.00309620	     -1.21430039	    -12.58001039	     -3.68168922	     29.69439691	     46.33903635	      0.00000000	      0.00000000	     19.58767681	    -19.80422189	     -4.99331295	     54.76649418	     46.81317671	      0.00000000	      0.00000000
     38.34842857	     -3.72320561	     -6.02822674	     -2.03227792	      1.09135687	      0.93733113	      0.40213562	     29.92565816	     -4.65184436	     -5.82637609	     49.57820794	     49.57820794	      1.25714765	     -6.70202359	     -2.68342054	     11.54234545	     -7.48810475	    -11.72509653	     19.45147621	     19.45147621	     13.10211377	    -10.44811367	     -0.82896208	    -11.33601480	      6.91690893	      1.92692660	     -2.36784125	    -12.50896275	     -3.67730560	     29.12726422	     46.34931008	      0.00000000	      0.00000000	     20.21602855	    -20.31357968	     -5.49945911	     56.14779310	     46.88454264	      0.00000000	      0.00000000
     38.36150000	     -4.09324268	     -6.08992808	     -2.32041376	      1.08975939	      0.93719834	      0.40249003	     30.27652127	     -4.38889755	     -6.08325147	     46.32472010	     46.32472010	      1.22086316	     -5.92920050	     -2.37754005	     11.40717359	     -7.55932447	    -11.98963905	     19.02401140	     19.02401140	     13.12333826	    -10.36181197	     -0.92991070	    -11.22604933	      6.99795935	      1.72728195	     -3.43724742	    -12.41507850	     -3.67282929	     28.73560935	     46.35490459	      0.00000000	      0.00000000	     20.87504193	    -20.91125935	     -5.81710793	     56.87478819	     46.92811719	      0.00000000	      0.00000000
     38.37457143	     -4.23538985	     -6.11226678	     -2.60791272	      1.08840965	      0.93725787	      0.40288412	     30.14446291	     -4.17955787	     -6.43993309	     42.61799210	     42.61799210	      1.14681239	     -4.78251092	     -2.32974143	     10.96290792	     -7.58848767	    -12.35580279	     18.52026363	     18.52026363	     13.13244270	    -10.13060088	     -1.27453129	    -11.42488114	      7.01253055	      1.80990522	     -4.54019665	    -12.45292069	     -3.71337598	     28.39398609	     46.36034765	      0.00000000	      0.00000000	     21.43854992	    -21.19575448	     -6.23351474	     58.30268516	     46.98992042	      0.00000000	      0.00000000
     38.38764286	     -4.63918948	     -6.08707780	     -2.87213835	      1.08699786	      0.93679073	      0.40351484	     30.15489759	     -3.94881116	     -6.85835781	     38.61461570	     38.61461570	      1.02254913	     -3.70052649	     -2.00592380	     10.89747093	     -7.59608438	    -12.64585509	     18.15522945	     18.15522945	     13.11324767	    -10.00657419	     -1.48316439	    -11.26639652	      6.97315728	      1.65508888	     -5.53172567	    -12.38322054	     -3.74533206	     28.16727832	     46.36193200	      0.00000000	      0.00000000	     21.92650696	    -21.65341917	     -6.52554480	     59.13858055	     47.03120875	      0.00000000	      0.00000000
     38.40071429	     -4.85707825	     -6.02216560	     -3.13005542	      1.08588380	      0.93637428	      0.40416239	     29.80105583	     -3.76899257	     -7.44187873	     34.37031780	     34.37031780	      0.75948066	     -2.30276330	     -1.73397635	     10.60911487	     -7.55948444	    -12.98895651	     17.81660945	     17.81660945	     13.21278566	     -9.88295994	     -1.84944301	    -11.28224546	      6.87774513	      1.58184088	     -6.48459290	    -12.40834644	     -3.81362440	     28.05120869	     46.36149003	      0.00000000	      0.00000000	     22.34254623	    -21.97321737	     -6.81431047	     60.17405324	     47.07497205	      0.00000000	      0.00000000
